<svg width="14" height="14" viewBox="0 0 14 14" fill="none" xmlns="http://www.w3.org/2000/svg">
<path d="M1.00313 11.6844L3.71875 8.96875L2.81854 8.1203C2.4051 7.70686 2.6979 7 3.28256 7H6.34506C6.7075 7 7 7.29381 7 7.65625V10.7188C7 11.3034 6.29445 11.5962 5.88104 11.1828L5.03125 10.2812L2.31563 12.9969C2.14479 13.1677 1.86777 13.1677 1.69693 12.9969L1.00313 12.3031C0.832289 12.1322 0.832289 11.8552 1.00313 11.6844ZM12.9969 2.31563L10.2812 5.03125L11.1815 5.8797C11.5949 6.29314 11.3021 7 10.7174 7H7.65494C7.2925 7 7 6.70619 7 6.34375V3.28125C7 2.69659 7.70555 2.40379 8.11896 2.8172L8.96875 3.71875L11.6844 1.00313C11.8552 0.832289 12.1322 0.832289 12.3031 1.00313L12.9969 1.69693C13.1677 1.86777 13.1677 2.14479 12.9969 2.31563Z" fill="#B7B7B7"/>
</svg>
