<svg width="14" height="14" viewBox="0 0 14 14" fill="none" xmlns="http://www.w3.org/2000/svg">
<path d="M6.69063 8.62187L4.15625 11.1562L5.05646 12.0047C5.4699 12.4181 5.1771 13.125 4.59244 13.125H1.52994C1.1675 13.125 0.875 12.8312 0.875 12.4688V9.40625C0.875 8.82159 1.58055 8.52879 1.99396 8.9422L2.84375 9.84375L5.37813 7.30937C5.54898 7.13852 5.826 7.13852 5.99684 7.30937L6.69063 8.00316C6.8615 8.174 6.8615 8.451 6.69063 8.62187ZM7.30937 5.37813L9.84375 2.84375L8.94354 1.9953C8.5301 1.58186 8.8229 0.875 9.40756 0.875H12.4701C12.8325 0.875 13.125 1.16881 13.125 1.53125V4.59375C13.125 5.17841 12.4194 5.47121 12.006 5.0578L11.1562 4.15625L8.62187 6.69063C8.45102 6.86148 8.174 6.86148 8.00316 6.69063L7.30937 5.99684C7.1385 5.826 7.1385 5.549 7.30937 5.37813Z" fill="white"/>
</svg>
