<svg width="28" height="28" viewBox="0 0 28 28" fill="none" xmlns="http://www.w3.org/2000/svg">
<path d="M24.8168 21.0213C24.5773 21.0212 24.3404 20.9695 24.1215 20.8698C24.0706 20.8467 24.0221 20.8185 23.9766 20.7856L19.5529 17.6017C19.3286 17.4402 19.1455 17.226 19.0191 16.977C18.8927 16.728 18.8267 16.4516 18.8266 16.1711V11.8289C18.8267 11.5484 18.8927 11.272 19.0191 11.023C19.1455 10.774 19.3286 10.5598 19.5529 10.3983L23.9766 7.21437C24.0221 7.18148 24.0706 7.15327 24.1215 7.13016C24.3821 7.0117 24.6675 6.9617 24.9518 6.98469C25.2361 7.00768 25.5102 7.10294 25.7494 7.26181C25.9885 7.42069 26.185 7.63814 26.321 7.8944C26.4571 8.15067 26.5283 8.43763 26.5283 8.72922V19.2708C26.5283 19.7349 26.348 20.18 26.027 20.5082C25.7061 20.8364 25.2708 21.0208 24.8168 21.0208V21.0213ZM14.334 21.875H4.49288C3.52861 21.874 2.60412 21.4819 1.92228 20.7847C1.24044 20.0875 0.856948 19.1422 0.855957 18.1562V9.84375C0.856948 8.85779 1.24044 7.9125 1.92228 7.21532C2.60412 6.51813 3.52861 6.12601 4.49288 6.125H14.3596C15.317 6.12616 16.2349 6.51556 16.9119 7.20779C17.5889 7.90001 17.9697 8.83854 17.9709 9.8175V18.1562C17.9699 19.1422 17.5864 20.0875 16.9045 20.7847C16.2227 21.4819 15.2982 21.874 14.334 21.875Z" fill="#E6E3E3"/>
</svg>
