<svg width="18" height="17" viewBox="0 0 18 17" fill="none" xmlns="http://www.w3.org/2000/svg">
<path d="M17.4161 6.62241C17.0098 4.77632 15.9323 3.09605 14.3818 1.89125C12.7961 0.666079 10.8256 -0.000967865 8.7949 1.05406e-06C6.40109 1.05406e-06 4.16524 0.890604 2.49366 2.50788C0.878271 4.07279 -0.00703093 6.13897 4.20556e-05 8.32431C9.70501e-05 9.92652 0.487181 11.4935 1.40089 12.8308L1.57182 13.0604L0.628752 17L5.13974 15.9163C5.13974 15.9163 5.23012 15.9455 5.29692 15.9701C5.36372 15.9948 5.9386 16.2077 6.54845 16.3724C7.05534 16.509 8.11 16.7139 8.93637 16.7139C11.2803 16.7139 13.469 15.8373 15.0989 14.2451C16.7143 12.6654 17.6039 10.565 17.6039 8.32886C17.604 7.75523 17.5411 7.1832 17.4161 6.62241Z" fill="white"/>
</svg>
