<svg width="17" height="17" viewBox="0 0 17 17" fill="none" xmlns="http://www.w3.org/2000/svg">
<path d="M6.38316 7.89286H1.33601C0.981679 7.89286 0.641859 7.74893 0.391309 7.49274C0.140758 7.23656 0 6.88909 0 6.52679V1.36607C0 1.00377 0.140758 0.656301 0.391309 0.400113C0.641859 0.143925 0.981679 0 1.33601 0H6.38316C6.7375 0 7.07732 0.143925 7.32787 0.400113C7.57842 0.656301 7.71918 1.00377 7.71918 1.36607V6.52679C7.71918 6.88909 7.57842 7.23656 7.32787 7.49274C7.07732 7.74893 6.7375 7.89286 6.38316 7.89286ZM15.2899 7.89286H10.2428C9.88842 7.89286 9.5486 7.74893 9.29805 7.49274C9.0475 7.23656 8.90674 6.88909 8.90674 6.52679V1.36607C8.90674 1.00377 9.0475 0.656301 9.29805 0.400113C9.5486 0.143925 9.88842 0 10.2428 0H15.2899C15.6442 0 15.9841 0.143925 16.2346 0.400113C16.4852 0.656301 16.6259 1.00377 16.6259 1.36607V6.52679C16.6259 6.88909 16.4852 7.23656 16.2346 7.49274C15.9841 7.74893 15.6442 7.89286 15.2899 7.89286ZM6.38316 17H1.33601C0.981679 17 0.641859 16.8561 0.391309 16.5999C0.140758 16.3437 0 15.9962 0 15.6339V10.4732C0 10.1109 0.140758 9.76344 0.391309 9.50726C0.641859 9.25107 0.981679 9.10714 1.33601 9.10714H6.38316C6.7375 9.10714 7.07732 9.25107 7.32787 9.50726C7.57842 9.76344 7.71918 10.1109 7.71918 10.4732V15.6339C7.71918 15.9962 7.57842 16.3437 7.32787 16.5999C7.07732 16.8561 6.7375 17 6.38316 17ZM15.2899 17H10.2428C9.88842 17 9.5486 16.8561 9.29805 16.5999C9.0475 16.3437 8.90674 15.9962 8.90674 15.6339V10.4732C8.90674 10.1109 9.0475 9.76344 9.29805 9.50726C9.5486 9.25107 9.88842 9.10714 10.2428 9.10714H15.2899C15.6442 9.10714 15.9841 9.25107 16.2346 9.50726C16.4852 9.76344 16.6259 10.1109 16.6259 10.4732V15.6339C16.6259 15.9962 16.4852 16.3437 16.2346 16.5999C15.9841 16.8561 15.6442 17 15.2899 17Z" fill="white"/>
</svg>
