<svg width="310" height="310" viewBox="0 0 310 310" fill="none" xmlns="http://www.w3.org/2000/svg">
<path d="M36.1582 144.973L156.802 80.6868L279.917 145.204L157.19 211.128L36.1582 144.973Z" stroke="#6844D6" stroke-width="3"/>
<g filter="url(#filter0_d_944_102)">
<path d="M37.0521 145.307L156.83 81.3521L278.934 145.308L157.087 210.89L37.0521 145.307Z" stroke="url(#paint0_linear_944_102)" shape-rendering="crispEdges"/>
</g>
<path d="M36.1582 161.973L156.802 97.6868L279.917 162.204L157.19 228.128L36.1582 161.973Z" stroke="#6844D6" stroke-width="3"/>
<g filter="url(#filter1_d_944_102)">
<path d="M37.0521 162.307L156.83 98.3521L278.934 162.308L157.087 227.89L37.0521 162.307Z" stroke="url(#paint1_linear_944_102)" shape-rendering="crispEdges"/>
</g>
<path d="M36.1582 177.973L156.802 113.687L279.917 178.204L157.19 244.128L36.1582 177.973Z" stroke="#6844D6" stroke-width="3"/>
<g filter="url(#filter2_d_944_102)">
<path d="M37.0521 178.307L156.83 114.352L278.934 178.308L157.087 243.89L37.0521 178.307Z" stroke="url(#paint2_linear_944_102)" shape-rendering="crispEdges"/>
</g>
<g filter="url(#filter3_i_944_102)">
<path d="M204 123.5C204 148.629 183.405 169 158 169C132.595 169 112 148.629 112 123.5C112 98.371 132.595 78 158 78C183.405 78 204 98.371 204 123.5Z" fill="url(#paint3_radial_944_102)" fill-opacity="0.84"/>
</g>
<path d="M204 123.5C204 148.629 183.405 169 158 169C132.595 169 112 148.629 112 123.5C112 98.371 132.595 78 158 78C183.405 78 204 98.371 204 123.5Z" fill="url(#paint4_linear_944_102)"/>
<g filter="url(#filter4_di_944_102)">
<path fill-rule="evenodd" clip-rule="evenodd" d="M212 124C212 153.823 187.823 178 158 178C128.177 178 104 153.823 104 124C104 94.1766 128.177 70 158 70C187.823 70 212 94.1766 212 124ZM203 123.5C203 148.629 182.629 169 157.5 169C132.371 169 112 148.629 112 123.5C112 98.371 132.371 78 157.5 78C182.629 78 203 98.371 203 123.5Z" fill="url(#paint5_radial_944_102)" fill-opacity="0.84" shape-rendering="crispEdges"/>
</g>
<g filter="url(#filter5_d_944_102)">
<mask id="path-10-inside-1_944_102" fill="white">
<path fill-rule="evenodd" clip-rule="evenodd" d="M206 123.5C206 149.734 184.734 171 158.5 171C132.266 171 111 149.734 111 123.5C111 97.2665 132.266 76 158.5 76C184.734 76 206 97.2665 206 123.5ZM204.394 124.224C204.394 149.728 183.718 170.404 158.213 170.404C132.708 170.404 112.033 149.728 112.033 124.224C112.033 98.7187 132.708 78.043 158.213 78.043C183.718 78.043 204.394 98.7187 204.394 124.224Z"/>
</mask>
<path fill-rule="evenodd" clip-rule="evenodd" d="M206 123.5C206 149.734 184.734 171 158.5 171C132.266 171 111 149.734 111 123.5C111 97.2665 132.266 76 158.5 76C184.734 76 206 97.2665 206 123.5ZM204.394 124.224C204.394 149.728 183.718 170.404 158.213 170.404C132.708 170.404 112.033 149.728 112.033 124.224C112.033 98.7187 132.708 78.043 158.213 78.043C183.718 78.043 204.394 98.7187 204.394 124.224Z" fill="url(#paint6_linear_944_102)" fill-opacity="0.38" shape-rendering="crispEdges"/>
<path d="M158.5 171.2C184.844 171.2 206.2 149.844 206.2 123.5H205.8C205.8 149.623 184.623 170.8 158.5 170.8V171.2ZM110.8 123.5C110.8 149.844 132.156 171.2 158.5 171.2V170.8C132.377 170.8 111.2 149.623 111.2 123.5H110.8ZM158.5 75.8C132.156 75.8 110.8 97.156 110.8 123.5H111.2C111.2 97.3769 132.377 76.2 158.5 76.2V75.8ZM206.2 123.5C206.2 97.156 184.844 75.8 158.5 75.8V76.2C184.623 76.2 205.8 97.3769 205.8 123.5H206.2ZM158.213 170.604C183.828 170.604 204.594 149.839 204.594 124.224H204.194C204.194 149.618 183.608 170.204 158.213 170.204V170.604ZM111.833 124.224C111.833 149.839 132.598 170.604 158.213 170.604V170.204C132.819 170.204 112.233 149.618 112.233 124.224H111.833ZM158.213 77.843C132.598 77.843 111.833 98.6083 111.833 124.224H112.233C112.233 98.8292 132.819 78.243 158.213 78.243V77.843ZM204.594 124.224C204.594 98.6083 183.828 77.843 158.213 77.843V78.243C183.608 78.243 204.194 98.8292 204.194 124.224H204.594Z" fill="#E6E2FF" fill-opacity="0.19" mask="url(#path-10-inside-1_944_102)"/>
</g>
<g filter="url(#filter6_d_944_102)">
<path d="M149.93 113V134.818H146.414L136.134 119.957H135.952V134.818H132V113H135.537L145.807 127.872H145.999V113H149.93Z" fill="url(#paint7_linear_944_102)" shape-rendering="crispEdges"/>
<path d="M154.236 134.818V113H168.214V116.313H158.189V122.237H167.255V125.55H158.189V134.818H154.236Z" fill="url(#paint8_linear_944_102)" shape-rendering="crispEdges"/>
<path d="M170.856 116.313V113H188.263V116.313H181.52V134.818H177.599V116.313H170.856Z" fill="url(#paint9_linear_944_102)" shape-rendering="crispEdges"/>
<path d="M149.98 113V112.95H149.93H145.999H145.949V113V127.822H145.833L135.578 112.972L135.563 112.95H135.537H132H131.95V113V134.818V134.868H132H135.952H136.002V134.818V120.007H136.107L146.373 134.847L146.388 134.868H146.414H149.93H149.98V134.818V113ZM154.186 134.818V134.868H154.236H158.189H158.239V134.818V125.6H167.255H167.305V125.55V122.237V122.187H167.255H158.239V116.363H168.214H168.264V116.313V113V112.95H168.214H154.236H154.186V113V134.818ZM170.806 116.313V116.363H170.856H177.549V134.818V134.868H177.599H181.52H181.57V134.818V116.363H188.263H188.313V116.313V113V112.95H188.263H170.856H170.806V113V116.313Z" stroke="#909090" stroke-width="0.1" shape-rendering="crispEdges"/>
</g>
<g filter="url(#filter7_f_944_102)">
<path d="M149.93 113V134.818H146.414L136.134 119.957H135.952V134.818H132V113H135.537L145.807 127.872H145.999V113H149.93Z" fill="#D9D9D9" fill-opacity="0.72"/>
<path d="M154.236 134.818V113H168.214V116.313H158.189V122.237H167.255V125.55H158.189V134.818H154.236Z" fill="#D9D9D9" fill-opacity="0.72"/>
<path d="M170.856 116.313V113H188.263V116.313H181.52V134.818H177.599V116.313H170.856Z" fill="#D9D9D9" fill-opacity="0.72"/>
</g>
<path d="M150.58 113V112.35H149.93H145.999H145.349V113V126.065L136.072 112.631L135.878 112.35H135.537H132H131.35V113V134.818V135.468H132H135.952H136.602V134.818V121.777L145.88 135.188L146.073 135.468H146.414H149.93H150.58V134.818V113ZM153.586 134.818V135.468H154.236H158.189H158.839V134.818V126.2H167.255H167.905V125.55V122.237V121.587H167.255H158.839V116.963H168.214H168.864V116.313V113V112.35H168.214H154.236H153.586V113V134.818ZM170.206 116.313V116.963H170.856H176.949V134.818V135.468H177.599H181.52H182.17V134.818V116.963H188.263H188.913V116.313V113V112.35H188.263H170.856H170.206V113V116.313Z" stroke="#AF8CFF" stroke-width="1.3"/>
<path d="M150.33 113V112.6H149.93H145.999H145.599V113V126.867L135.866 112.773L135.747 112.6H135.537H132H131.6V113V134.818V135.218H132H135.952H136.352V134.818V120.976L146.085 135.046L146.204 135.218H146.414H149.93H150.33V134.818V113ZM153.836 134.818V135.218H154.236H158.189H158.589V134.818V125.95H167.255H167.655V125.55V122.237V121.837H167.255H158.589V116.713H168.214H168.614V116.313V113V112.6H168.214H154.236H153.836V113V134.818ZM170.456 116.313V116.713H170.856H177.199V134.818V135.218H177.599H181.52H181.92V134.818V116.713H188.263H188.663V116.313V113V112.6H188.263H170.856H170.456V113V116.313Z" fill="#D9D9D9" stroke="white" stroke-width="0.8"/>
<path d="M310 155C310 240.604 240.604 310 155 310C69.3959 310 0 240.604 0 155C0 69.3959 69.3959 0 155 0C240.604 0 310 69.3959 310 155Z" fill="url(#paint10_radial_944_102)"/>
<defs>
<filter id="filter0_d_944_102" x="32" y="80.7864" width="252" height="138.672" filterUnits="userSpaceOnUse" color-interpolation-filters="sRGB">
<feFlood flood-opacity="0" result="BackgroundImageFix"/>
<feColorMatrix in="SourceAlpha" type="matrix" values="0 0 0 0 0 0 0 0 0 0 0 0 0 0 0 0 0 0 127 0" result="hardAlpha"/>
<feOffset dy="4"/>
<feGaussianBlur stdDeviation="2"/>
<feComposite in2="hardAlpha" operator="out"/>
<feColorMatrix type="matrix" values="0 0 0 0 0.442518 0 0 0 0 0.284115 0 0 0 0 0.909167 0 0 0 1 0"/>
<feBlend mode="normal" in2="BackgroundImageFix" result="effect1_dropShadow_944_102"/>
<feBlend mode="normal" in="SourceGraphic" in2="effect1_dropShadow_944_102" result="shape"/>
</filter>
<filter id="filter1_d_944_102" x="32" y="97.7864" width="252" height="138.672" filterUnits="userSpaceOnUse" color-interpolation-filters="sRGB">
<feFlood flood-opacity="0" result="BackgroundImageFix"/>
<feColorMatrix in="SourceAlpha" type="matrix" values="0 0 0 0 0 0 0 0 0 0 0 0 0 0 0 0 0 0 127 0" result="hardAlpha"/>
<feOffset dy="4"/>
<feGaussianBlur stdDeviation="2"/>
<feComposite in2="hardAlpha" operator="out"/>
<feColorMatrix type="matrix" values="0 0 0 0 0.442518 0 0 0 0 0.284115 0 0 0 0 0.909167 0 0 0 1 0"/>
<feBlend mode="normal" in2="BackgroundImageFix" result="effect1_dropShadow_944_102"/>
<feBlend mode="normal" in="SourceGraphic" in2="effect1_dropShadow_944_102" result="shape"/>
</filter>
<filter id="filter2_d_944_102" x="32" y="113.786" width="252" height="138.672" filterUnits="userSpaceOnUse" color-interpolation-filters="sRGB">
<feFlood flood-opacity="0" result="BackgroundImageFix"/>
<feColorMatrix in="SourceAlpha" type="matrix" values="0 0 0 0 0 0 0 0 0 0 0 0 0 0 0 0 0 0 127 0" result="hardAlpha"/>
<feOffset dy="4"/>
<feGaussianBlur stdDeviation="2"/>
<feComposite in2="hardAlpha" operator="out"/>
<feColorMatrix type="matrix" values="0 0 0 0 0.442518 0 0 0 0 0.284115 0 0 0 0 0.909167 0 0 0 1 0"/>
<feBlend mode="normal" in2="BackgroundImageFix" result="effect1_dropShadow_944_102"/>
<feBlend mode="normal" in="SourceGraphic" in2="effect1_dropShadow_944_102" result="shape"/>
</filter>
<filter id="filter3_i_944_102" x="112" y="78" width="92" height="95" filterUnits="userSpaceOnUse" color-interpolation-filters="sRGB">
<feFlood flood-opacity="0" result="BackgroundImageFix"/>
<feBlend mode="normal" in="SourceGraphic" in2="BackgroundImageFix" result="shape"/>
<feColorMatrix in="SourceAlpha" type="matrix" values="0 0 0 0 0 0 0 0 0 0 0 0 0 0 0 0 0 0 127 0" result="hardAlpha"/>
<feOffset dy="4"/>
<feGaussianBlur stdDeviation="3.5"/>
<feComposite in2="hardAlpha" operator="arithmetic" k2="-1" k3="1"/>
<feColorMatrix type="matrix" values="0 0 0 0 0.407843 0 0 0 0 0.298039 0 0 0 0 0.780392 0 0 0 0.53 0"/>
<feBlend mode="normal" in2="shape" result="effect1_innerShadow_944_102"/>
</filter>
<filter id="filter4_di_944_102" x="96" y="66" width="124" height="124" filterUnits="userSpaceOnUse" color-interpolation-filters="sRGB">
<feFlood flood-opacity="0" result="BackgroundImageFix"/>
<feColorMatrix in="SourceAlpha" type="matrix" values="0 0 0 0 0 0 0 0 0 0 0 0 0 0 0 0 0 0 127 0" result="hardAlpha"/>
<feOffset dy="4"/>
<feGaussianBlur stdDeviation="4"/>
<feComposite in2="hardAlpha" operator="out"/>
<feColorMatrix type="matrix" values="0 0 0 0 0.215686 0 0 0 0 0.184314 0 0 0 0 0.407843 0 0 0 0.45 0"/>
<feBlend mode="normal" in2="BackgroundImageFix" result="effect1_dropShadow_944_102"/>
<feBlend mode="normal" in="SourceGraphic" in2="effect1_dropShadow_944_102" result="shape"/>
<feColorMatrix in="SourceAlpha" type="matrix" values="0 0 0 0 0 0 0 0 0 0 0 0 0 0 0 0 0 0 127 0" result="hardAlpha"/>
<feOffset dy="4"/>
<feGaussianBlur stdDeviation="2"/>
<feComposite in2="hardAlpha" operator="arithmetic" k2="-1" k3="1"/>
<feColorMatrix type="matrix" values="0 0 0 0 0 0 0 0 0 0 0 0 0 0 0 0 0 0 0.25 0"/>
<feBlend mode="normal" in2="shape" result="effect2_innerShadow_944_102"/>
</filter>
<filter id="filter5_d_944_102" x="107" y="76" width="103" height="103" filterUnits="userSpaceOnUse" color-interpolation-filters="sRGB">
<feFlood flood-opacity="0" result="BackgroundImageFix"/>
<feColorMatrix in="SourceAlpha" type="matrix" values="0 0 0 0 0 0 0 0 0 0 0 0 0 0 0 0 0 0 127 0" result="hardAlpha"/>
<feOffset dy="4"/>
<feGaussianBlur stdDeviation="2"/>
<feComposite in2="hardAlpha" operator="out"/>
<feColorMatrix type="matrix" values="0 0 0 0 0 0 0 0 0 0 0 0 0 0 0 0 0 0 0.25 0"/>
<feBlend mode="normal" in2="BackgroundImageFix" result="effect1_dropShadow_944_102"/>
<feBlend mode="normal" in="SourceGraphic" in2="effect1_dropShadow_944_102" result="shape"/>
</filter>
<filter id="filter6_d_944_102" x="127.9" y="112.9" width="64.4633" height="30.0183" filterUnits="userSpaceOnUse" color-interpolation-filters="sRGB">
<feFlood flood-opacity="0" result="BackgroundImageFix"/>
<feColorMatrix in="SourceAlpha" type="matrix" values="0 0 0 0 0 0 0 0 0 0 0 0 0 0 0 0 0 0 127 0" result="hardAlpha"/>
<feOffset dy="4"/>
<feGaussianBlur stdDeviation="2"/>
<feComposite in2="hardAlpha" operator="out"/>
<feColorMatrix type="matrix" values="0 0 0 0 1 0 0 0 0 1 0 0 0 0 1 0 0 0 0.3 0"/>
<feBlend mode="normal" in2="BackgroundImageFix" result="effect1_dropShadow_944_102"/>
<feBlend mode="normal" in="SourceGraphic" in2="effect1_dropShadow_944_102" result="shape"/>
</filter>
<filter id="filter7_f_944_102" x="123" y="104" width="74.2633" height="39.8181" filterUnits="userSpaceOnUse" color-interpolation-filters="sRGB">
<feFlood flood-opacity="0" result="BackgroundImageFix"/>
<feBlend mode="normal" in="SourceGraphic" in2="BackgroundImageFix" result="shape"/>
<feGaussianBlur stdDeviation="4.5" result="effect1_foregroundBlur_944_102"/>
</filter>
<linearGradient id="paint0_linear_944_102" x1="158" y1="205.5" x2="158" y2="82" gradientUnits="userSpaceOnUse">
<stop stop-color="#FFF9F9"/>
<stop offset="1" stop-color="#FFF9F9" stop-opacity="0"/>
</linearGradient>
<linearGradient id="paint1_linear_944_102" x1="158" y1="222.5" x2="158" y2="99" gradientUnits="userSpaceOnUse">
<stop stop-color="#FFF9F9"/>
<stop offset="1" stop-color="#FFF9F9" stop-opacity="0"/>
</linearGradient>
<linearGradient id="paint2_linear_944_102" x1="158" y1="238.5" x2="158" y2="115" gradientUnits="userSpaceOnUse">
<stop stop-color="#FFF9F9"/>
<stop offset="1" stop-color="#FFF9F9" stop-opacity="0"/>
</linearGradient>
<radialGradient id="paint3_radial_944_102" cx="0" cy="0" r="1" gradientUnits="userSpaceOnUse" gradientTransform="translate(177 154.658) rotate(-120.53) scale(75.7896 76.195)">
<stop stop-color="#8A6AF7" stop-opacity="0"/>
<stop offset="1" stop-color="#21223C" stop-opacity="0.41"/>
</radialGradient>
<linearGradient id="paint4_linear_944_102" x1="181" y1="165" x2="121.985" y2="61.4386" gradientUnits="userSpaceOnUse">
<stop stop-color="#6D47F2"/>
<stop offset="1" stop-color="#D8A6FF"/>
</linearGradient>
<radialGradient id="paint5_radial_944_102" cx="0" cy="0" r="1" gradientUnits="userSpaceOnUse" gradientTransform="translate(143.5 96.5) rotate(58.5704) scale(52.7376)">
<stop stop-color="#C26BD5"/>
<stop offset="1" stop-color="#493A8C" stop-opacity="0.68349"/>
</radialGradient>
<linearGradient id="paint6_linear_944_102" x1="158.5" y1="76" x2="198.664" y2="192.764" gradientUnits="userSpaceOnUse">
<stop stop-color="white"/>
<stop offset="1" stop-color="#BF85D8" stop-opacity="0"/>
</linearGradient>
<linearGradient id="paint7_linear_944_102" x1="160" y1="137" x2="160" y2="110.5" gradientUnits="userSpaceOnUse">
<stop stop-color="#D9D9D9" stop-opacity="0.29"/>
<stop offset="1" stop-color="#D9D9D9" stop-opacity="0"/>
</linearGradient>
<linearGradient id="paint8_linear_944_102" x1="160" y1="137" x2="160" y2="110.5" gradientUnits="userSpaceOnUse">
<stop stop-color="#D9D9D9" stop-opacity="0.29"/>
<stop offset="1" stop-color="#D9D9D9" stop-opacity="0"/>
</linearGradient>
<linearGradient id="paint9_linear_944_102" x1="160" y1="137" x2="160" y2="110.5" gradientUnits="userSpaceOnUse">
<stop stop-color="#D9D9D9" stop-opacity="0.29"/>
<stop offset="1" stop-color="#D9D9D9" stop-opacity="0"/>
</linearGradient>
<radialGradient id="paint10_radial_944_102" cx="0" cy="0" r="1" gradientUnits="userSpaceOnUse" gradientTransform="translate(160 155.079) rotate(90) scale(155)">
<stop offset="0.00312487" stop-color="#4212FF" stop-opacity="0.26"/>
<stop offset="1" stop-color="#9712FF" stop-opacity="0"/>
</radialGradient>
</defs>
</svg>
