<svg width="17" height="17" viewBox="0 0 17 17" fill="none" xmlns="http://www.w3.org/2000/svg">
<path d="M13.5 7.25V14.4375C13.5 14.6427 13.4596 14.8459 13.3811 15.0354C13.3025 15.225 13.1874 15.3973 13.0424 15.5424C12.8973 15.6874 12.725 15.8025 12.5354 15.8811C12.3459 15.9596 12.1427 16 11.9375 16H2.5625C2.1481 16 1.75067 15.8354 1.45765 15.5424C1.16462 15.2493 1 14.8519 1 14.4375V5.0625C1 4.6481 1.16462 4.25067 1.45765 3.95765C1.75067 3.66462 2.1481 3.5 2.5625 3.5H9.10469M11.625 1H16V5.375M7.25 9.75L15.6875 1.3125" stroke="#9471CC" stroke-width="2" stroke-linecap="round" stroke-linejoin="round"/>
</svg>
