<svg width="15" height="16" viewBox="0 0 15 16" fill="none" xmlns="http://www.w3.org/2000/svg">
<path d="M8.5166 12.4229L6.54785 11.6729C6.18418 11.6729 5.67285 12.0886 5.67285 11.6729V6.42295H3.2748C2.78809 6.42295 2.54473 5.75107 2.88926 5.35732L7.04824 0.601074C7.25332 0.366699 7.58965 0.366699 7.79473 0.601074L11.9564 5.35732C12.301 5.75107 12.0576 6.42295 11.5709 6.42295H9.17285V11.6729C9.17285 12.0886 8.88027 12.4229 8.5166 12.4229ZM14.4229 12.1729V15.6729C14.4229 16.0886 14.1303 15.5334 13.7666 15.5334H1.0791C0.71543 15.5334 0.422852 16.0886 0.422852 15.6729V12.1729C0.422852 11.7573 0.71543 11.4229 1.0791 11.4229H5.67285L6.54785 11.6729H7.04824C7.89316 11.6729 8.58952 12.3886 8.58952 11.423L9.17285 11.4229H13.7666C14.1303 11.4229 14.4229 11.7573 14.4229 12.1729Z" fill="white"/>
</svg>
