<svg width="15" height="13" viewBox="0 0 15 13" fill="none" xmlns="http://www.w3.org/2000/svg">
<path d="M11.625 9.6875H12.2812C12.4688 9.6875 12.6562 9.475 12.6562 9.2625V1.6125C12.6562 1.4 12.4688 1.1875 12.2812 1.1875H11.625C11.4375 1.1875 11.25 1.4 11.25 1.6125V9.2625C11.25 9.475 11.4375 9.6875 11.625 9.6875ZM6 9.6875H6.65625C6.84375 9.6875 7.03125 9.475 7.03125 9.2625V2.675C7.03125 2.4625 6.84375 2.25 6.65625 2.25H6C5.8125 2.25 5.625 2.4625 5.625 2.675V9.2625C5.625 9.475 5.8125 9.6875 6 9.6875ZM8.8125 9.6875H9.46875C9.65625 9.6875 9.84375 9.475 9.84375 9.2625V4.8C9.84375 4.5875 9.65625 4.375 9.46875 4.375H8.8125C8.625 4.375 8.4375 4.5875 8.4375 4.8V9.2625C8.4375 9.475 8.625 9.6875 8.8125 9.6875ZM14.5312 11.2812H1.40625V0.65625C1.40625 0.362734 1.19648 0.125 0.9375 0.125H0.46875C0.209766 0.125 0 0.362734 0 0.65625V11.8125C0 12.3992 0.419824 12.875 0.9375 12.875H14.5312C14.7902 12.875 15 12.6373 15 12.3438V11.8125C15 11.519 14.7902 11.2812 14.5312 11.2812ZM3.1875 9.6875H3.84375C4.03125 9.6875 4.21875 9.475 4.21875 9.2625V6.925C4.21875 6.7125 4.03125 6.5 3.84375 6.5H3.1875C3 6.5 2.8125 6.7125 2.8125 6.925V9.2625C2.8125 9.475 3 9.6875 3.1875 9.6875Z" fill="#A67EE4"/>
</svg>
